<svg width="20" height="20" viewBox="0 0 20 20" fill="none" xmlns="http://www.w3.org/2000/svg">
<g clip-path="url(#clip0_2707_23906)">
<path fill-rule="evenodd" clip-rule="evenodd" d="M1.75908 5.31857C1.77332 5.06227 1.9853 4.86174 2.24199 4.86174H17.758C18.0147 4.86174 18.2267 5.06227 18.2409 5.31857L19.0167 19.283C19.0241 19.4157 18.9765 19.5456 18.8852 19.6422C18.7938 19.7387 18.6667 19.7935 18.5338 19.7935H1.46619C1.33326 19.7935 1.20619 19.7387 1.11484 19.6422C1.02349 19.5456 0.975908 19.4157 0.983282 19.283L1.75908 5.31857ZM2.69953 5.82905L1.97747 18.8261H18.0225L17.3005 5.82905H2.69953Z" fill="#0E0E0E"/>
<path fill-rule="evenodd" clip-rule="evenodd" d="M10 1.17385C8.13371 1.17385 6.6047 2.70286 6.6047 4.5692V9.224H5.63739V4.5692C5.63739 2.16863 7.59948 0.206537 10 0.206537C12.4006 0.206537 14.3627 2.16863 14.3627 4.5692V9.224H13.3954V4.5692C13.3954 2.70286 11.8664 1.17385 10 1.17385Z" fill="#0E0E0E"/>
</g>
<defs>
<clipPath id="clip0_2707_23906">
<rect width="20" height="20" fill="white"/>
</clipPath>
</defs>
</svg>
