<svg width="60" height="34" viewBox="0 0 60 34" fill="none" xmlns="http://www.w3.org/2000/svg">
<g clip-path="url(#clip0_2732_25880)">
<rect width="60" height="34" rx="6" fill="#5B5B5B"/>
<path d="M34.3151 10.1172H25.6562V25.6736H34.3151V10.1172Z" fill="#C7C7C7"/>
<path d="M26.2325 17.8949C26.2325 14.7343 27.7184 11.9291 29.9984 10.1167C28.3204 8.79736 26.2037 8 23.8949 8C18.4255 8 14 12.4255 14 17.8949C14 23.3643 18.4255 27.7898 23.8949 27.7898C26.2037 27.7898 28.3204 26.9925 29.9984 25.6731C27.7152 23.8863 26.2325 21.0555 26.2325 17.8949Z" fill="#959595"/>
<path d="M45.9984 17.8949C45.9984 23.3643 41.5729 27.7898 36.1035 27.7898C33.7946 27.7898 31.678 26.9925 30 25.6731C32.3088 23.8575 33.7658 21.0555 33.7658 17.8949C33.7658 14.7343 32.28 11.9291 30 10.1167C31.6748 8.79736 33.7914 8 36.1003 8C41.5729 8 45.9984 12.4543 45.9984 17.8949Z" fill="white"/>
</g>
<defs>
<clipPath id="clip0_2732_25880">
<rect width="60" height="34" fill="white"/>
</clipPath>
</defs>
</svg>
