<svg width="60" height="34" viewBox="0 0 60 34" fill="none" xmlns="http://www.w3.org/2000/svg">
<g clip-path="url(#clip0_2732_25878)">
<rect width="60" height="34" rx="6" fill="#5B5B5B"/>
<path fill-rule="evenodd" clip-rule="evenodd" d="M15.7777 12.002C16.9974 12.002 18.1228 12.6636 17.9688 14.3125C17.7822 16.2722 16.7323 17.3566 15.0759 17.3612H13.6286C13.4205 17.3612 13.3197 17.5311 13.2655 17.8792L12.9856 19.6587C12.9436 19.9275 12.8055 20.06 12.602 20.06H11.2555C11.0408 20.06 10.9662 19.9228 11.0138 19.6158L12.1252 12.4835C12.1802 12.1326 12.3118 12.002 12.5517 12.002H15.7749H15.7777ZM13.5847 15.8205H14.6812C15.3671 15.7944 15.8225 15.3194 15.8682 14.4628C15.8962 13.9336 15.5388 13.5548 14.9705 13.5576L13.9384 13.5622L13.5847 15.8205ZM21.6297 19.5141C21.7529 19.4021 21.8779 19.3443 21.8602 19.4824L21.8163 19.8127C21.7939 19.9854 21.862 20.0768 22.0226 20.0768H23.2189C23.4205 20.0768 23.5184 19.9956 23.5679 19.6839L24.3051 15.0572C24.3425 14.8248 24.2855 14.711 24.1092 14.711H22.7934C22.6749 14.711 22.617 14.7772 22.5862 14.9583L22.5377 15.2429C22.5125 15.3913 22.4444 15.4174 22.3809 15.2681C22.1579 14.7399 21.5886 14.5029 20.7945 14.5216C18.9496 14.5598 17.7056 15.9605 17.5722 17.756C17.4695 19.1446 18.4643 20.2354 19.7764 20.2354C20.7282 20.2354 21.1538 19.9555 21.6334 19.5169L21.6297 19.5141ZM20.6274 18.8021C19.8333 18.8021 19.2799 18.1684 19.3947 17.392C19.5095 16.6156 20.2523 15.982 21.0464 15.982C21.8406 15.982 22.394 16.6156 22.2792 17.392C22.1644 18.1684 21.4225 18.8021 20.6274 18.8021ZM26.6465 14.6961H25.4333C25.1833 14.6961 25.0815 14.8827 25.1609 15.1123L26.667 19.5225L25.1898 21.6212C25.0657 21.7967 25.1618 21.9562 25.3363 21.9562H26.6997C26.7791 21.9654 26.8596 21.9516 26.9314 21.9163C27.0032 21.8811 27.0633 21.8259 27.1047 21.7575L31.737 15.1132C31.8798 14.9088 31.8126 14.6942 31.5784 14.6942H30.2878C30.0666 14.6942 29.978 14.7819 29.851 14.9658L27.9194 17.7653L27.0562 14.9592C27.0058 14.7894 26.8798 14.6961 26.6474 14.6961H26.6465Z" fill="#B0B0B0"/>
<path fill-rule="evenodd" clip-rule="evenodd" d="M36.5538 12.0019C37.7735 12.0019 38.8989 12.6635 38.745 14.3124C38.5583 16.2721 37.5085 17.3565 35.8521 17.3611H34.4056C34.1975 17.3611 34.0968 17.531 34.0426 17.8791L33.7627 19.6587C33.7207 19.9274 33.5826 20.0599 33.3791 20.0599H32.0326C31.8179 20.0599 31.7433 19.9227 31.7909 19.6157L32.9041 12.4815C32.9592 12.1306 33.0908 12 33.3306 12H36.5538V12.0019ZM34.3609 15.8205H35.4573C36.1432 15.7943 36.5986 15.3193 36.6444 14.4627C36.6724 13.9336 36.3149 13.5547 35.7466 13.5575L34.7145 13.5622L34.3609 15.8205V15.8205ZM42.4058 19.514C42.529 19.402 42.6541 19.3442 42.6363 19.4823L42.5925 19.8126C42.5701 19.9853 42.6382 20.0767 42.7987 20.0767H43.9951C44.1966 20.0767 44.2946 19.9955 44.3441 19.6838L45.0813 15.0571C45.1186 14.8248 45.0617 14.7109 44.8853 14.7109H43.5714C43.4529 14.7109 43.395 14.7772 43.3642 14.9582L43.3157 15.2428C43.2905 15.3912 43.2224 15.4173 43.1589 15.268C42.9359 14.7398 42.3666 14.5028 41.5725 14.5215C39.7276 14.5597 38.4837 15.9604 38.3502 17.7559C38.2476 19.1445 39.2423 20.2354 40.5544 20.2354C41.5062 20.2354 41.9318 19.9554 42.4114 19.5168L42.4058 19.514ZM41.4045 18.802C40.6104 18.802 40.057 18.1684 40.1718 17.3919C40.2866 16.6155 41.0294 15.9819 41.8235 15.9819C42.6177 15.9819 43.1711 16.6155 43.0563 17.3919C42.9415 18.1684 42.1987 18.802 41.4045 18.802ZM46.9225 20.0842H45.5413C45.5173 20.0853 45.4934 20.081 45.4712 20.0718C45.449 20.0625 45.4291 20.0484 45.413 20.0306C45.3968 20.0128 45.3848 19.9916 45.3778 19.9686C45.3708 19.9456 45.369 19.9213 45.3724 19.8975L46.5856 12.2118C46.5972 12.1594 46.6261 12.1124 46.6678 12.0785C46.7095 12.0446 46.7614 12.0258 46.8151 12.0252H48.1963C48.2203 12.0241 48.2442 12.0284 48.2664 12.0376C48.2886 12.0469 48.3085 12.0609 48.3246 12.0788C48.3408 12.0966 48.3528 12.1178 48.3598 12.1408C48.3668 12.1638 48.3686 12.188 48.3652 12.2118L47.152 19.8975C47.1408 19.9503 47.112 19.9978 47.0703 20.032C47.0285 20.0663 46.9764 20.0853 46.9225 20.0861V20.0842Z" fill="white"/>
</g>
<defs>
<clipPath id="clip0_2732_25878">
<rect width="60" height="34" fill="white"/>
</clipPath>
</defs>
</svg>
