<svg width="60" height="34" viewBox="0 0 60 34" fill="none" xmlns="http://www.w3.org/2000/svg">
<g clip-path="url(#clip0_2732_25879)">
<rect width="60" height="34" rx="6" fill="#5B5B5B"/>
<path d="M15.3894 15.5439C15.3894 15.1756 15.6917 15.0339 16.1922 15.0339C16.91 15.0339 17.8167 15.2511 18.5344 15.6383V13.4189C17.7506 13.1072 16.9761 12.9844 16.1922 12.9844C14.275 12.9844 13 13.9856 13 15.6572C13 18.2639 16.5889 17.8483 16.5889 18.9722C16.5889 19.4067 16.2111 19.5483 15.6822 19.5483C14.8983 19.5483 13.8972 19.2272 13.1039 18.7928V21.0406C13.9822 21.4183 14.87 21.5789 15.6822 21.5789C17.6467 21.5789 18.9972 20.6061 18.9972 18.9156C18.9878 16.1011 15.3894 16.6017 15.3894 15.5439ZM21.7739 11.0956L19.4694 11.5867L19.46 19.1517C19.46 20.5494 20.5083 21.5789 21.9061 21.5789C22.6806 21.5789 23.2472 21.4372 23.5589 21.2672V19.35C23.2567 19.4728 21.7644 19.9072 21.7644 18.5094V15.1567H23.5589V13.145H21.7644L21.7739 11.0956ZM26.4961 13.8439L26.345 13.145H24.305V21.4089H26.6661V15.8083C27.2233 15.0811 28.1678 15.2133 28.4606 15.3172V13.145C28.1583 13.0317 27.0533 12.8239 26.4961 13.8439ZM29.0367 13.145H31.4072V21.4089H29.0367V13.145ZM29.0367 12.4272L31.4072 11.9172V10L29.0367 10.5006V12.4272ZM36.3372 12.9844C35.4117 12.9844 34.8167 13.4189 34.4861 13.7211L34.3633 13.1356H32.2856V24.1478L34.6467 23.6472L34.6561 20.9744C34.9961 21.22 35.4967 21.5694 36.3278 21.5694C38.0183 21.5694 39.5578 20.2094 39.5578 17.2156C39.5483 14.4767 37.99 12.9844 36.3372 12.9844ZM35.7706 19.4917C35.2133 19.4917 34.8828 19.2933 34.6561 19.0478L34.6467 15.5439C34.8922 15.27 35.2322 15.0811 35.7706 15.0811C36.63 15.0811 37.225 16.0444 37.225 17.2817C37.225 18.5472 36.6394 19.4917 35.7706 19.4917ZM47 17.31C47 14.8922 45.8289 12.9844 43.5906 12.9844C41.3428 12.9844 39.9828 14.8922 39.9828 17.2911C39.9828 20.1339 41.5883 21.5694 43.8928 21.5694C45.0167 21.5694 45.8667 21.3144 46.5089 20.9556V19.0667C45.8667 19.3878 45.13 19.5861 44.195 19.5861C43.2789 19.5861 42.4667 19.265 42.3628 18.1506H46.9811C46.9811 18.0278 47 17.5367 47 17.31ZM42.3344 16.4128C42.3344 15.3456 42.9861 14.9017 43.5811 14.9017C44.1572 14.9017 44.7711 15.3456 44.7711 16.4128H42.3344Z" fill="white"/>
</g>
<defs>
<clipPath id="clip0_2732_25879">
<rect width="60" height="34" fill="white"/>
</clipPath>
</defs>
</svg>
