<svg width="168" height="30" viewBox="0 0 168 30" fill="none" xmlns="http://www.w3.org/2000/svg">
<g clip-path="url(#clip0_2955_16265)">
<path d="M10.5392 24.4438C14.5331 24.4438 18.4159 22.225 19.2202 16.8167L16.3913 16.5393C15.7534 19.923 13.9784 21.9476 10.5392 21.9476C6.57315 21.9476 4.2989 18.6472 4.2989 14.3205C4.2989 9.96618 6.57315 6.638 10.5392 6.638C13.9784 6.638 15.7256 8.91225 16.3636 12.2127L19.2202 11.9076C18.4159 6.49932 14.5331 4.14186 10.5392 4.14186C6.2126 4.14186 1.46995 7.2759 1.46995 14.3205C1.46995 21.3375 6.2126 24.4438 10.5392 24.4438ZM28.9578 24.4438C32.3691 24.4438 35.6973 22.1418 35.6973 17.094C35.6973 12.074 32.3691 9.68883 28.9578 9.68883C25.5186 9.68883 22.1627 12.074 22.1627 17.094C22.1627 22.1418 25.5186 24.4438 28.9578 24.4438ZM24.9917 17.094C24.9917 14.1541 26.2675 12.074 28.9578 12.074C31.6203 12.074 32.9238 14.1541 32.9238 17.094C32.9238 20.0617 31.6203 22.0586 28.9578 22.0586C26.2675 22.0586 24.9917 20.0617 24.9917 17.094ZM56.7199 15.0139V24H59.5488V14.8752C59.5488 11.6303 58.0512 9.68883 55.1945 9.68883C52.837 9.68883 51.1175 10.9092 50.3686 12.6842C49.8139 10.7705 48.4272 9.68883 46.2916 9.68883C43.8787 9.68883 42.381 10.9646 41.7431 12.8783V10.1326H38.9141V24H41.7431V17.4546C41.7431 13.2666 43.6013 12.074 45.2654 12.074C46.6521 12.074 47.817 12.6287 47.817 15.0139V24H50.646V16.7057C50.646 13.2666 52.5042 12.074 54.1683 12.074C55.555 12.074 56.7199 12.6287 56.7199 15.0139ZM81.3941 15.0139V24H84.2231V14.8752C84.2231 11.6303 82.7254 9.68883 79.8687 9.68883C77.5113 9.68883 75.7917 10.9092 75.0429 12.6842C74.4882 10.7705 73.1014 9.68883 70.9658 9.68883C68.5529 9.68883 67.0552 10.9646 66.4173 12.8783V10.1326H63.5884V24H66.4173V17.4546C66.4173 13.2666 68.2756 12.074 69.9397 12.074C71.3264 12.074 72.4913 12.6287 72.4913 15.0139V24H75.3202V16.7057C75.3202 13.2666 77.1784 12.074 78.8425 12.074C80.2293 12.074 81.3941 12.6287 81.3941 15.0139ZM94.1489 24.4438C97.4771 24.4438 99.8623 22.7519 100.278 19.9784L97.5048 19.7011C97.2829 20.6164 96.645 22.0586 94.1489 22.0586C91.6528 22.0586 90.266 20.1171 90.266 17.7042H100.334V17.1218C100.334 12.0463 97.4771 9.68883 94.1489 9.68883C90.8207 9.68883 87.4371 12.0463 87.4371 17.1218C87.4371 22.225 90.8207 24.4438 94.1489 24.4438ZM90.266 15.6518C90.266 14.0709 91.6528 12.074 94.1489 12.074C96.645 12.074 97.6435 14.0709 97.6435 15.6518H90.266ZM103.566 24H106.394V17.7042C106.394 14.0709 107.587 12.5178 109.889 12.5178H111.914V10.1326H110.166C108.475 10.1326 107.032 11.131 106.394 13.0447V10.1326H103.566V24ZM120.017 24.4438C123.345 24.4438 125.786 23.0848 126.368 19.0355L123.567 18.7581C123.123 20.9214 122.125 22.0586 120.017 22.0586C117.299 22.0586 116.051 19.8952 116.051 17.1218C116.051 14.4037 117.299 12.074 120.017 12.074C122.208 12.074 123.123 13.4053 123.567 15.5409L126.368 15.2635C125.758 11.1588 123.373 9.68883 120.017 9.68883C116.55 9.68883 113.222 12.1018 113.222 17.1218C113.222 22.1418 116.55 24.4438 120.017 24.4438ZM135.751 24.4438C139.079 24.4438 141.465 22.7519 141.881 19.9784L139.107 19.7011C138.885 20.6164 138.247 22.0586 135.751 22.0586C133.255 22.0586 131.868 20.1171 131.868 17.7042H141.936V17.1218C141.936 12.0463 139.079 9.68883 135.751 9.68883C132.423 9.68883 129.039 12.0463 129.039 17.1218C129.039 22.225 132.423 24.4438 135.751 24.4438ZM131.868 15.6518C131.868 14.0709 133.255 12.074 135.751 12.074C138.247 12.074 139.246 14.0709 139.246 15.6518H131.868ZM163.838 24H166.916L160.26 14.2928L166.916 4.58562H163.838L158.735 12.0463L153.604 4.58562H150.525L157.182 14.2928L150.525 24H153.604L158.735 16.5393L163.838 24Z" fill="#0E0E0E"/>
</g>
<defs>
<clipPath id="clip0_2955_16265">
<rect width="168" height="30" fill="white"/>
</clipPath>
</defs>
</svg>
